<?xml version="1.0" encoding="UTF-8" standalone="no"?>
<!-- Created with Inkscape (http://www.inkscape.org/) -->

<svg
   version="1.1"
   id="svg1"
   width="1024"
   height="1024"
   viewBox="140 40 760 820"
   sodipodi:docname="LOGO.png"
   inkscape:export-filename="LOGO.png"
   inkscape:export-xdpi="96"
   inkscape:export-ydpi="96"
   xmlns:inkscape="http://www.inkscape.org/namespaces/inkscape"
   xmlns:sodipodi="http://sodipodi.sourceforge.net/DTD/sodipodi-0.dtd"
   xmlns="http://www.w3.org/2000/svg"
   xmlns:svg="http://www.w3.org/2000/svg">
  <defs
     id="defs1" />
  <sodipodi:namedview
     id="namedview1"
     pagecolor="#505050"
     bordercolor="#ffffff"
     borderopacity="1"
     inkscape:showpageshadow="0"
     inkscape:pageopacity="0"
     inkscape:pagecheckerboard="1"
     inkscape:deskcolor="#505050">
    <inkscape:page
       x="0"
       y="0"
       width="1024"
       height="1024"
       id="page2"
       margin="0"
       bleed="0" />
  </sodipodi:namedview>
  <g
     inkscape:groupmode="layer"
     inkscape:label="Image"
     id="g1">
    <g
       id="g13"
       style="fill:#e8eaed;fill-opacity:1">
      <path
         style="fill:#e8eaed;fill-opacity:1;stroke-width:0.877464"
         d="M 192.16452,773.04542 V 714.69409 H 176.80891 161.4533 V 701.0934 687.49272 h 45.62811 45.6281 v 13.60068 13.60069 h -15.79434 -15.79435 v 58.35133 58.35132 h -14.47815 -14.47815 z"
         id="path7" />
      <path
         style="fill:#e8eaed;fill-opacity:1;stroke-width:0.877464"
         d="m 248.65,829.88219 c 0.25267,-0.85612 5.84,-20.90464 12.41628,-44.55228 19.1188,-68.74921 26.82784,-95.56476 27.81603,-96.75683 0.70587,-0.85151 5.48519,-1.05784 20.32534,-0.87746 l 19.40246,0.23583 10.35156,35.97601 c 24.23847,84.23886 30.24239,106.16781 29.24557,106.81775 -1.80455,1.17658 -28.44983,0.79358 -29.19969,-0.41972 -0.37093,-0.60018 -2.50562,-7.01663 -4.74374,-14.25878 l -4.06931,-13.16753 h -21.77592 -21.77592 l -4.07162,14.03941 -4.07161,14.03942 -15.15442,0.24037 c -14.16037,0.2246 -15.12428,0.13827 -14.69501,-1.31619 z m 73.82094,-54.6481 c 0.29996,-0.48534 -2.28018,-10.85038 -5.73366,-23.03341 -6.13166,-21.63104 -8.39347,-28.50108 -9.13818,-27.75636 -0.43993,0.43993 -10.51988,37.94836 -11.88194,44.21378 -0.52457,2.41302 -1.16332,5.07832 -1.41944,5.92288 -0.42999,1.41788 0.61079,1.53556 13.58108,1.53556 8.47085,0 14.26325,-0.35029 14.59214,-0.88245 z"
         id="path8" />
      <path
         style="fill:#e8eaed;fill-opacity:1;stroke-width:0.877464"
         d="m 397.491,804.47556 v -26.92117 l -16.81857,-34.72064 c -17.71426,-36.56973 -26.17714,-54.34816 -26.17714,-54.99171 0,-0.21297 7.53334,-0.27998 16.74075,-0.1489 l 16.74075,0.23831 9.4528,22.37532 c 13.95451,33.03115 14.88126,34.94166 16.1317,33.25576 0.57277,-0.77223 6.15579,-13.70384 12.40671,-28.73693 l 11.36532,-27.33288 h 16.44269 16.44269 l -3.78252,8.11653 c -2.08039,4.4641 -11.73152,24.79408 -21.44697,45.17773 l -17.66445,37.06119 v 26.77429 26.77428 H 412.40788 397.491 Z"
         id="path9" />
      <path
         style="fill:#e8eaed;fill-opacity:1;stroke-width:0.877464"
         d="m 483.7018,830.81562 c -0.86486,-0.34898 -1.09683,-15.55163 -1.09683,-71.88274 v -71.44016 h 16.11913 16.11914 l 20.07624,42.53766 20.07624,42.53767 0.55806,-11.16834 c 0.30693,-6.14259 0.60308,-25.28454 0.6581,-42.53767 l 0.10003,-31.36932 h 14.47815 14.47815 v 71.9718 71.97181 l -15.99624,-0.23916 -15.99624,-0.23916 -20.00408,-42.53741 c -11.00224,-23.39558 -20.38799,-42.92134 -20.85722,-43.39058 -0.55257,-0.55257 -0.85316,14.51179 -0.85316,42.75678 v 43.60994 l -13.38132,-0.0693 c -7.35973,-0.0381 -13.87489,-0.26844 -14.47815,-0.51185 z"
         id="path10" />
      <path
         style="fill:#e8eaed;fill-opacity:1;stroke-width:0.877;stroke-dasharray:none"
         d="m 609.83719,759.46595 v -71.97323 h 14.92201 14.92201 l -0.2245,71.73264 -0.22449,71.73265 -14.69752,0.24058 -14.69751,0.24059 z"
         id="path11" />
      <path
         style="fill:#e8eaed;fill-opacity:1;stroke-width:0.877464"
         d="m 700.33076,831.7995 c -16.67896,-3.61906 -28.62708,-14.56199 -33.97201,-31.11398 -1.40678,-4.35649 -1.59246,-10.09797 -1.90831,-59.00943 l -0.3499,-54.18337 h 14.42816 14.42815 l 0.41805,51.98971 c 0.40936,50.91035 0.45686,52.06538 2.28788,55.63406 2.33975,4.56023 7.43191,8.83302 11.99767,10.06714 1.92276,0.51973 5.96194,0.78792 8.97595,0.596 7.04497,-0.44858 12.05919,-3.70073 15.07654,-9.7784 l 2.10198,-4.23389 0.43625,-52.13731 0.43624,-52.13731 h 14.41769 14.41768 l -0.32814,54.18337 c -0.32077,52.96646 -0.37126,54.31148 -2.24812,59.88689 -5.1955,15.43384 -16.55567,26.38595 -31.37201,30.24513 -6.40391,1.668 -21.53736,1.66355 -29.24375,-0.009 z"
         id="path12" />
      <path
         style="fill:#e8eaed;fill-opacity:1;stroke-width:0.877464"
         d="m 786.20737,759.44473 v -71.95201 h 18.42673 c 10.13471,0 18.42674,0.11889 18.42674,0.2642 0,0.36907 27.64012,75.91788 28.95628,79.14625 l 1.07318,2.63239 1.52485,-3.50985 c 0.83866,-1.93042 7.36057,-19.89649 14.49313,-39.9246 7.13256,-20.0281 13.15719,-36.90831 13.38806,-37.51156 0.31773,-0.83021 4.98295,-1.09683 19.19137,-1.09683 h 18.77159 v 71.95201 71.95201 h -14.03942 -14.03942 l -0.004,-36.6341 c -0.004,-37.26727 -0.63557,-57.01415 -1.78318,-55.75812 -0.55621,0.60876 -5.71921,14.80292 -22.35615,61.46163 l -4.14558,11.62639 -11.08263,-0.011 -11.08262,-0.011 -5.85385,-16.88016 c -3.21961,-9.28408 -9.14249,-25.9619 -13.16195,-37.06182 l -7.30811,-20.18166 -0.54691,19.3042 c -0.30081,10.61731 -0.59695,31.64353 -0.6581,46.72494 l -0.11119,27.42073 h -14.03941 -14.03942 z"
         id="path13" />
    </g>
  </g>
  <g
     id="g14"
     transform="translate(-186.89974,368.5347)"
     style="fill:#800000">
    <path
       style="fill:#800000;stroke-width:0.877464"
       d="m 857.06399,161.23861 c -7.59577,-5.2354 -22.90053,-17.17754 -41.03888,-32.0222 l -13.86176,-11.34466 5.60425,-6.28806 c 16.37077,-18.368252 20.23589,-27.436482 20.25802,-47.528842 0.0242,-22.0006 -6.64929,-36.30221 -23.74705,-50.89082 -12.32248,-10.5141303 -22.43719,-14.0052803 -40.64018,-14.0272203 -10.1145,-0.0122 -12.86194,0.29958 -18.79874,2.13316 -9.47537,2.92647 -17.64661,8.5074203 -28.2171,19.2722603 l -8.84617,9.00881 -5.29721,-5.56215 c -21.23912,-22.3014003 -47.64627,-54.07181 -47.64627,-57.32317 0,-2.05954 27.04721,-25.89451 29.38432,-25.89451 1.19497,0 4.38738,2.57333 18.86972,15.21047 3.13338,2.73416 6.38553,4.97119 7.22699,4.97119 2.84723,0 24.50031,-8.25947 25.23065,-9.62412 0.39876,-0.74509 1.38673,-5.89321 2.19549,-11.44027 2.27304,-15.59027 2.99014,-18.30884 5.13321,-19.46029 1.29414,-0.69533 8.14214,-0.99789 21.48415,-0.94922 16.97768,0.0619 19.79949,0.26599 21.19958,1.53305 2.00564,1.81509 2.21787,2.66868 4.38306,17.62885 0.96621,6.67595 2.25491,12.6096 2.86378,13.1859 1.32003,1.24941 23.0599,9.1261 25.18826,9.1261 0.81523,0 4.8122,-2.79837 8.88216,-6.21861 13.56585,-11.4002 15.87939,-13.08558 17.96274,-13.08558 2.35308,0 7.47957,4.08797 23.06675,18.39391 8.97245,8.23494 10.65281,10.17249 10.18809,11.74746 -0.30608,1.03733 -3.90251,7.56799 -7.99207,14.51258 -4.08956,6.9445997 -7.48447,13.2757997 -7.54424,14.0693497 -0.0854,1.13388 9.02205,18.5145703 12.29824,23.4699703 0.37377,0.56534 7.77075,2.25108 16.43774,3.74609 8.66699,1.49501 16.10145,3.0615 16.52104,3.48108 1.2076,1.2076 2.45609,19.61539 2.17771,32.10826 l -0.2542,11.40703 -3.12894,1.53065 c -1.72092,0.84185 -8.56327,2.68267 -15.20522,4.09068 -6.64195,1.40802 -12.2901,2.77386 -12.55145,3.03521 -0.75252,0.75252 -9.91644,26.938442 -9.91644,28.336242 0,0.69209 4.39066,6.07704 9.75702,11.96655 5.36636,5.8895 9.94782,11.19744 10.18102,11.7954 0.80923,2.07502 -21.41648,29.29326 -24.38731,29.86539 -0.71653,0.13799 -4.05587,-1.64667 -7.42076,-3.96592 z"
       id="path5" />
    <path
       style="fill:#800000;stroke-width:0.877464"
       d="m 562.45416,280.12894 c 1.68911,-1.65147 3.26855,-2.97325 3.50985,-2.9373 0.98233,0.14639 6.14225,-2.36814 6.14225,-2.99324 0,-0.37043 0.49357,-0.61867 1.09683,-0.55164 1.84125,0.20458 14.69751,-4.09624 14.69751,-4.91678 0,-0.42264 0.40258,-0.51962 0.89462,-0.21553 0.78356,0.48427 4.71464,-0.40069 8.75748,-1.97148 0.72391,-0.28127 1.54567,-0.47092 1.82613,-0.42147 0.28047,0.0495 3.43934,-0.69187 7.01971,-1.64739 3.58038,-0.95553 7.57083,-1.89855 8.86768,-2.09561 4.82697,-0.73349 9.31647,-2.26298 10.37055,-3.53305 0.59791,-0.72044 0.79759,-1.30989 0.44373,-1.30989 -0.35387,0 0.28879,-0.77659 1.42812,-1.72574 1.13933,-0.94915 1.79762,-1.73887 1.46287,-1.75493 -0.33476,-0.016 0.54308,-1.29017 1.95076,-2.83136 1.40766,-1.54119 2.41559,-2.94596 2.23985,-3.12171 -0.17574,-0.17574 0.8114,-1.55774 2.19366,-3.07112 1.38225,-1.51337 2.36779,-2.89699 2.19008,-3.07469 -0.1777,-0.17772 0.62261,-1.34354 1.77847,-2.59074 1.15587,-1.2472 2.10157,-2.80227 2.10157,-3.4557 0,-0.65344 0.33693,-1.18807 0.74872,-1.18807 0.7233,0 8.90338,-11.73754 8.90338,-12.77538 0,-0.28156 0.59229,-1.10421 1.31619,-1.82812 0.72391,-0.72391 1.3162,-1.87225 1.3162,-2.55188 0,-1.2214 -5.48133,-4.49468 -8.52079,-5.08836 -0.86353,-0.16867 -2.35976,-0.61606 -3.32497,-0.9942 -0.96521,-0.37815 -7.48038,-2.84778 -14.47815,-5.48807 -15.50974,-5.85189 -35.96316,-15.8128 -47.99153,-23.37211 -4.91943,-3.09164 -9.16416,-5.40143 -9.43274,-5.13284 -0.26858,0.26857 -0.48832,0.0755 -0.48832,-0.42907 0,-0.50457 -3.06016,-3.21063 -6.80035,-6.01346 -9.20882,-6.90095 -39.38803,-37.25952 -38.21023,-38.43733 0.17136,-0.17135 -0.84562,-1.55033 -2.25996,-3.06438 -1.41433,-1.51405 -2.31438,-2.76537 -2.00011,-2.78072 0.31428,-0.0154 -0.06,-0.50893 -0.83185,-1.09683 -0.7718,-0.58791 -1.40755,-1.39612 -1.41277,-1.79604 -0.0195,-1.49269 -3.91384,-7.60879 -4.84479,-7.60879 -0.53216,0 -0.74408,-0.22348 -0.47094,-0.49662 0.27314,-0.27314 -1.37912,-4.51787 -3.67169,-9.43273 -2.29256,-4.91487 -5.10805,-11.700134 -6.25663,-15.078364 -1.14857,-3.37824 -2.29323,-6.33968 -2.54368,-6.58098 -0.25045,-0.2413 -0.47593,-0.83359 -0.50107,-1.3162 -0.12859,-2.46829 -1.56793,-7.5387 -2.26173,-7.96749 -0.43577,-0.26932 -0.59988,-0.80103 -0.36469,-1.18158 0.2352,-0.38055 0.0213,-2.03141 -0.47531,-3.66859 -2.37877,-7.84203 -2.44088,-8.74964 -2.42528,-35.44283 0.0157,-26.8758301 0.065,-27.7250901 2.42141,-41.6795201 1.36602,-8.0895999 0.59747,-21.0512799 -1.53483,-25.8851799 -4.66977,-10.58631 -7.21601,-14.54155 -13.29735,-20.65564 -7.13954,-7.17798 -19.70429,-13.49481 -30.41503,-15.29089 -1.52372,-0.25552 -3.65379,-0.79136 -4.73348,-1.19076 l -1.96308,-0.72619 2.53983,-2.37836 c 1.3969,-1.3081 4.41541,-3.58988 6.70778,-5.07061 2.29237,-1.48074 4.16795,-3.04595 4.16795,-3.47825 0,-0.43229 0.29615,-0.70776 0.6581,-0.61214 1.19753,0.31634 4.60668,-1.15479 4.60668,-1.98791 0,-0.45008 0.29615,-0.72109 0.6581,-0.60223 0.93266,0.30626 8.11641,-2.14483 8.11716,-2.76957 3.4e-4,-0.28471 1.07407,-0.57999 2.38608,-0.65618 1.312,-0.0762 2.53002,-0.57222 2.70671,-1.10229 0.17669,-0.53008 0.69969,-0.72989 1.16222,-0.44404 0.46252,0.28586 1.47663,-0.008 2.25357,-0.65263 0.77694,-0.6448 1.45065,-1.01571 1.49713,-0.82425 0.0465,0.19147 1.07165,0.0409 2.27816,-0.33452 1.97752,-0.61537 8.21024,-6.574 7.55831,-7.22592 -0.46311,-0.46311 5.73273,-7.428016 13.09839,-14.724266 11.72664,-11.61613 20.68861,-15.83531 36.33753,-17.10721 5.1283,-0.41682 9.70331,-0.85028 10.16669,-0.96326 0.46338,-0.11297 1.82965,0.0447 3.03617,0.3505 1.20651,0.30575 4.96739,0.68707 8.35749,0.84739 3.39012,0.16031 6.6477,0.59052 7.23908,0.95601 0.59138,0.36549 1.47009,0.42049 1.9527,0.12223 0.4826,-0.29827 0.87746,-0.15552 0.87746,0.31723 0,0.47274 1.12558,1.10674 2.50128,1.4089 4.70918,1.03431 15.91923,8.40327 23.16235,15.22584 3.98269,3.75145 7.39229,7.19739 7.57689,7.65765 0.1846,0.46025 1.80951,3.00854 3.6109,5.662866 1.80139,2.65433 4.95777,8.18235 7.01419,12.28449 2.05641,4.10214 3.98523,7.65587 4.28628,7.89717 0.30104,0.24131 0.66007,1.03102 0.79784,1.75493 0.47047,2.47196 4.02601,10.96708 4.81534,11.50513 0.43316,0.29526 0.67489,0.69012 0.53716,0.87746 -0.56973,0.77504 2.15609,8.67654 2.99319,8.67654 0.50032,0 0.68068,0.22898 0.40081,0.50885 -0.4785,0.4785 2.19208,9.01663 4.64381,14.84676 0.60885,1.44781 1.20558,3.10398 1.32609,3.68038 0.1205,0.57639 1.9055,4.32755 3.96666,8.3359 2.06115,4.00835 4.17233,8.17327 4.69149,9.25537 0.51916,1.08209 1.24007,1.97053 1.60203,1.97429 0.36195,0.004 0.65809,0.43113 0.65809,0.94971 0,1.32768 9.67855,14.0392499 11.10671,14.5872699 0.64778,0.24858 1.17743,0.90329 1.17699,1.45492 -4.4e-4,0.55162 1.14934,2.18752 2.55508,3.63534 1.40573,1.44781 4.86111,5.17127 7.67861,8.2743301 19.71681,21.71527 52.1363,54.19525 85.41064,85.57005 11.34879,10.700924 32.25843,29.178704 40.26437,35.581504 1.5086,1.20651 3.79272,3.27952 5.07583,4.60668 1.2831,1.32716 2.70439,2.41303 3.15842,2.41303 0.45402,0 1.60198,0.98714 2.55103,2.19365 0.94905,1.20652 2.04511,2.19366 2.43569,2.19366 0.39059,0 2.63237,1.77266 4.98173,3.93923 2.34936,2.16658 4.52109,3.94344 4.82605,3.94858 0.30496,0.005 2.47668,1.78202 4.82605,3.94859 2.34936,2.16658 4.52109,3.94344 4.82605,3.94859 0.30496,0.005 2.47668,1.78201 4.82605,3.94858 2.34936,2.16658 4.67016,3.94345 5.15733,3.94859 0.48716,0.005 1.37895,0.79908 1.98173,1.76429 0.60278,0.96521 1.68491,1.75492 2.40472,1.75492 0.71982,0 1.30877,0.31611 1.30877,0.70247 0,0.85368 11.8599,10.70456 12.8877,10.70456 0.40126,0 1.22276,0.78972 1.82555,1.75493 0.60278,0.96521 1.6849,1.75493 2.40472,1.75493 0.71982,0 1.30876,0.3108 1.30876,0.69066 0,0.79614 16.38818,14.22622 17.35967,14.22622 0.35471,0 1.13812,0.78971 1.7409,1.75492 0.60278,0.96521 1.58993,1.75493 2.19366,1.75493 0.60373,0 1.59087,0.78972 2.19366,1.75493 0.60278,0.96521 1.58993,1.75493 2.19366,1.75493 0.60373,0 1.59087,0.78971 2.19365,1.75492 0.60279,0.96521 1.58993,1.75493 2.19366,1.75493 0.60373,0 1.59088,0.78972 2.19366,1.75493 0.60278,0.96521 1.58993,1.75492 2.19366,1.75492 0.60373,0 1.59088,0.78972 2.19366,1.75493 0.60278,0.96521 1.58993,1.75493 2.19366,1.75493 0.60373,0 1.59088,0.78972 2.19366,1.75493 0.60278,0.96521 1.52936,1.75492 2.05907,1.75492 0.52972,0 1.74257,0.99091 2.69522,2.20202 0.95266,1.21111 2.09536,1.97753 2.53931,1.70314 0.44396,-0.27438 0.8072,-0.12304 0.8072,0.33632 0,0.80708 21.04864,18.13019 21.93659,18.0539 0.24131,-0.0207 1.17475,0.89799 2.07433,2.04163 0.89958,1.14362 1.83192,1.88299 2.07188,1.64303 0.23996,-0.23996 1.42865,0.74307 2.64154,2.18451 1.2129,1.44144 2.36905,2.457 2.56924,2.25682 0.20019,-0.2002 2.72839,2.09829 5.61822,5.10776 4.69772,4.89218 5.16586,5.70418 4.41989,7.66625 -1.16838,3.07307 -6.75463,7.44383 -11.47013,8.97439 -4.24178,1.37681 -17.44367,1.88286 -21.08692,0.80831 -1.20651,-0.35586 -7.97975,-3.50945 -15.05163,-7.00798 -7.07189,-3.49853 -13.09348,-6.12547 -13.38132,-5.83763 -0.28785,0.28784 -0.52335,0.13539 -0.52335,-0.33878 0,-1.13956 -6.59771,-4.82466 -7.32887,-4.09349 -0.31256,0.31257 -0.5683,0.168 -0.5683,-0.32124 0,-0.92527 -13.46103,-8.52117 -14.54342,-8.20667 -0.33879,0.0984 -0.85756,-0.18342 -1.15283,-0.62634 -0.63527,-0.95299 -11.28155,-7.23261 -12.71096,-7.49745 -0.54331,-0.10067 -1.18525,-0.42309 -1.42655,-0.71648 -0.88688,-1.07836 -13.1624,-7.69328 -13.17539,-7.09984 -0.007,0.33747 -0.30353,0.19788 -0.6581,-0.3102 -0.98315,-1.40883 -7.22378,-5.02368 -7.23907,-4.1932 -0.007,0.40132 -0.30354,0.29218 -0.6581,-0.24252 -0.95274,-1.4368 -13.15402,-8.16256 -13.74169,-7.5749 -0.27701,0.27701 -0.50366,0.13837 -0.50366,-0.30811 0,-0.44648 -3.06015,-2.38787 -6.80034,-4.3142 -3.74019,-1.92633 -7.0057,-3.77367 -7.25669,-4.10522 -0.25098,-0.33153 -2.22527,-1.43777 -4.38732,-2.45831 -2.16203,-1.02053 -6.69498,-3.42747 -10.07322,-5.34874 -15.52831,-8.83132 -24.44263,-12.29424 -35.09822,-13.63451 -1.44799,-0.18214 -5.748,-0.91263 -9.55556,-1.62332 -3.80758,-0.71068 -7.23531,-1.09906 -7.61719,-0.86305 -0.38187,0.23601 -0.954,0.009 -1.27141,-0.50465 -0.3174,-0.51357 -1.23311,-0.85419 -2.03492,-0.75692 -0.80181,0.0973 -2.05012,-0.0659 -2.77402,-0.36269 -0.72391,-0.29673 -4.6725,-1.37794 -8.77464,-2.40268 -11.12989,-2.78031 -22.30352,-6.50349 -34.22835,-11.40528 -10.48748,-4.31096 -29.26867,-13.35043 -34.87191,-16.78399 -1.56846,-0.96113 -2.8578,-1.41917 -2.86519,-1.01785 -0.007,0.40132 -0.30353,0.31566 -0.6581,-0.19035 -0.35456,-0.506 -4.97012,-3.81118 -10.25678,-7.34484 -28.87603,-19.30097 -48.29032,-40.47336 -63.39394,-69.134704 -2.74453,-5.20813 -5.31073,-9.60178 -5.70269,-9.76365 -0.39195,-0.16188 -0.52085,-0.60463 -0.28645,-0.98389 0.37825,-0.61202 -5.25848,-14.72529 -6.3233,-15.83234 -0.58704,-0.61031 0.32626,23.53148 1.01244,26.76264 0.30746,1.44781 0.78029,3.22468 1.05073,3.94858 0.27044,0.72391 0.65974,2.19432 0.86511,3.26757 0.20536,1.07326 0.79015,3.04756 1.29953,4.38732 0.50938,1.33977 0.94702,2.63337 0.97254,2.87468 0.2416,2.2847 9.67409,21.059124 10.58036,21.059124 0.41826,0 0.55339,0.33506 0.3003,0.74458 -0.2531,0.40951 0.31588,1.57759 1.26441,2.5957 0.94852,1.01812 1.72458,2.26249 1.72458,2.76528 0,0.50278 0.39486,0.91415 0.87746,0.91415 0.48261,0 0.88553,0.49357 0.89538,1.09683 0.0478,2.92546 25.67369,29.00444 33.26931,33.85753 1.23753,0.79069 2.73813,1.90262 3.33468,2.47095 1.82837,1.74189 14.45076,9.53792 14.93551,9.22468 0.2505,-0.16187 0.69704,0.0854 0.9923,0.54938 0.83643,1.31453 20.00822,10.69228 20.61622,10.08429 0.29756,-0.29756 0.54101,-0.15967 0.54101,0.30642 0,0.66334 3.99545,2.61783 7.01971,3.43389 0.2413,0.0651 2.01816,0.82178 3.94858,1.68149 1.93042,0.8597 3.90472,1.65176 4.38732,1.76014 0.48261,0.10838 2.06204,0.69179 3.50985,1.29647 1.44782,0.60468 3.22468,1.22743 3.94859,1.38388 0.72391,0.15646 1.41491,0.36405 1.53556,0.46129 0.12065,0.0973 0.51551,0.23223 0.87747,0.29994 0.36195,0.0677 1.05295,0.36679 1.53556,0.6646 0.4826,0.29781 2.25947,0.85712 3.94858,1.24293 1.68912,0.38579 3.46598,0.81814 3.94859,0.96077 4.89103,1.44552 19.3151,4.6678 22.58553,5.04551 2.28734,0.26417 5.05135,0.68804 6.14225,0.94193 1.09089,0.25389 3.76031,0.65729 5.93203,0.89644 10.79667,1.18895 19.3042,2.52052 19.3042,3.02143 0,0.72101 -10.35819,6.7012 -12.94259,7.47226 -1.08586,0.32396 -1.97429,0.98059 -1.97429,1.45915 0,0.47857 -0.32267,0.6707 -0.71704,0.42696 -0.39437,-0.24373 -2.32639,0.11132 -4.29337,0.789 -9.65703,3.32711 -27.95452,6.98253 -39.24272,7.83979 -2.83165,0.21504 -4.17034,1.02786 -7.45844,4.52855 -2.20405,2.34656 -4.27641,4.18271 -4.60524,4.08034 -0.74153,-0.23085 -31.42955,31.36937 -31.42955,32.36381 0,0.59752 1.33319,1.13232 5.26478,2.11197 0.2413,0.0601 1.03102,0.3473 1.75493,0.63816 1.86424,0.74906 21.22795,6.14204 22.81405,6.35395 0.72391,0.0967 2.50077,0.64204 3.94859,1.21184 8.94506,3.5204 14.49518,5.45125 14.95302,5.20206 0.28932,-0.15747 0.91274,0.4047 1.38538,1.24925 0.47263,0.84456 1.34798,1.53557 1.94521,1.53557 0.59722,0 1.1369,0.691 1.19928,1.53556 0.10697,1.44808 -3.81893,1.55232 -68.91352,1.82974 l -69.02696,0.29417 z M 545.06802,-73.903834 c 5.15026,-5.15025 3.98158,-15.7642 -2.16044,-19.62132 -2.22891,-1.39974 -3.92558,-1.70582 -8.00132,-1.44348 -4.66723,0.30041 -5.46774,0.655 -8.19362,3.62946 -2.80236,3.0579 -2.99131,3.62482 -2.61027,7.83198 0.52396,5.78526 0.86898,7.1072 2.3073,8.84026 2.3239,2.80013 5.68251,3.94713 10.85958,3.70865 4.35326,-0.20053 5.4789,-0.62568 7.79877,-2.94555 z"
       id="path6" />
  </g>
</svg>
