<?xml version="1.0" encoding="UTF-8" standalone="no"?>
<!-- Created with Inkscape (http://www.inkscape.org/) -->

<svg
   version="1.1"
   id="svg1"
   width="1024"
   height="1024"
   viewBox="0 0 1024 1024"
   sodipodi:docname="LOGO1.svg"
   inkscape:export-filename="C:\Users\Luke\Pictures\LOGO.png"
   inkscape:export-xdpi="96"
   inkscape:export-ydpi="96"
   inkscape:version="1.4.3 (0d15f75, 2025-12-25)"
   xmlns:inkscape="http://www.inkscape.org/namespaces/inkscape"
   xmlns:sodipodi="http://sodipodi.sourceforge.net/DTD/sodipodi-0.dtd"
   xmlns="http://www.w3.org/2000/svg"
   xmlns:svg="http://www.w3.org/2000/svg">
  <defs
     id="defs1" />
  <sodipodi:namedview
     id="namedview1"
     pagecolor="#505050"
     bordercolor="#ffffff"
     borderopacity="1"
     inkscape:showpageshadow="0"
     inkscape:pageopacity="0"
     inkscape:pagecheckerboard="1"
     inkscape:deskcolor="#505050"
     inkscape:zoom="1.6117063"
     inkscape:cx="434.01208"
     inkscape:cy="622.94229"
     inkscape:window-width="1278"
     inkscape:window-height="1360"
     inkscape:window-x="1273"
     inkscape:window-y="0"
     inkscape:window-maximized="0"
     inkscape:current-layer="g14" />
  <g
     inkscape:groupmode="layer"
     inkscape:label="Image"
     id="g1">
    <g
       id="g13"
       style="fill:#e7e9ec;fill-opacity:1">
      <path
         style="fill:#e7e9ec;stroke-width:0.877464;fill-opacity:1"
         d="M 192.16452,773.04542 V 714.69409 H 176.80891 161.4533 V 701.0934 687.49272 h 45.62811 45.6281 v 13.60068 13.60069 h -15.79434 -15.79435 v 58.35133 58.35132 h -14.47815 -14.47815 z"
         id="path7" />
      <path
         style="fill:#e7e9ec;stroke-width:0.877464;fill-opacity:1"
         d="m 248.65,829.88219 c 0.25267,-0.85612 5.84,-20.90464 12.41628,-44.55228 19.1188,-68.74921 26.82784,-95.56476 27.81603,-96.75683 0.70587,-0.85151 5.48519,-1.05784 20.32534,-0.87746 l 19.40246,0.23583 10.35156,35.97601 c 24.23847,84.23886 30.24239,106.16781 29.24557,106.81775 -1.80455,1.17658 -28.44983,0.79358 -29.19969,-0.41972 -0.37093,-0.60018 -2.50562,-7.01663 -4.74374,-14.25878 l -4.06931,-13.16753 h -21.77592 -21.77592 l -4.07162,14.03941 -4.07161,14.03942 -15.15442,0.24037 c -14.16037,0.2246 -15.12428,0.13827 -14.69501,-1.31619 z m 73.82094,-54.6481 c 0.29996,-0.48534 -2.28018,-10.85038 -5.73366,-23.03341 -6.13166,-21.63104 -8.39347,-28.50108 -9.13818,-27.75636 -0.43993,0.43993 -10.51988,37.94836 -11.88194,44.21378 -0.52457,2.41302 -1.16332,5.07832 -1.41944,5.92288 -0.42999,1.41788 0.61079,1.53556 13.58108,1.53556 8.47085,0 14.26325,-0.35029 14.59214,-0.88245 z"
         id="path8" />
      <path
         style="fill:#e7e9ec;stroke-width:0.877464;fill-opacity:1"
         d="m 397.491,804.47556 v -26.92117 l -16.81857,-34.72064 c -17.71426,-36.56973 -26.17714,-54.34816 -26.17714,-54.99171 0,-0.21297 7.53334,-0.27998 16.74075,-0.1489 l 16.74075,0.23831 9.4528,22.37532 c 13.95451,33.03115 14.88126,34.94166 16.1317,33.25576 0.57277,-0.77223 6.15579,-13.70384 12.40671,-28.73693 l 11.36532,-27.33288 h 16.44269 16.44269 l -3.78252,8.11653 c -2.08039,4.4641 -11.73152,24.79408 -21.44697,45.17773 l -17.66445,37.06119 v 26.77429 26.77428 H 412.40788 397.491 Z"
         id="path9" />
      <path
         style="fill:#e7e9ec;stroke-width:0.877464;fill-opacity:1"
         d="m 483.7018,830.81562 c -0.86486,-0.34898 -1.09683,-15.55163 -1.09683,-71.88274 v -71.44016 h 16.11913 16.11914 l 20.07624,42.53766 20.07624,42.53767 0.55806,-11.16834 c 0.30693,-6.14259 0.60308,-25.28454 0.6581,-42.53767 l 0.10003,-31.36932 h 14.47815 14.47815 v 71.9718 71.97181 l -15.99624,-0.23916 -15.99624,-0.23916 -20.00408,-42.53741 c -11.00224,-23.39558 -20.38799,-42.92134 -20.85722,-43.39058 -0.55257,-0.55257 -0.85316,14.51179 -0.85316,42.75678 v 43.60994 l -13.38132,-0.0693 c -7.35973,-0.0381 -13.87489,-0.26844 -14.47815,-0.51185 z"
         id="path10" />
      <path
         style="fill:#e7e9ec;stroke-width:0.877;fill-opacity:1;stroke-dasharray:none"
         d="m 609.83719,759.46595 v -71.97323 h 14.92201 14.92201 l -0.2245,71.73264 -0.22449,71.73265 -14.69752,0.24058 -14.69751,0.24059 z"
         id="path11" />
      <path
         style="fill:#e7e9ec;stroke-width:0.877464;fill-opacity:1"
         d="m 700.33076,831.7995 c -16.67896,-3.61906 -28.62708,-14.56199 -33.97201,-31.11398 -1.40678,-4.35649 -1.59246,-10.09797 -1.90831,-59.00943 l -0.3499,-54.18337 h 14.42816 14.42815 l 0.41805,51.98971 c 0.40936,50.91035 0.45686,52.06538 2.28788,55.63406 2.33975,4.56023 7.43191,8.83302 11.99767,10.06714 1.92276,0.51973 5.96194,0.78792 8.97595,0.596 7.04497,-0.44858 12.05919,-3.70073 15.07654,-9.7784 l 2.10198,-4.23389 0.43625,-52.13731 0.43624,-52.13731 h 14.41769 14.41768 l -0.32814,54.18337 c -0.32077,52.96646 -0.37126,54.31148 -2.24812,59.88689 -5.1955,15.43384 -16.55567,26.38595 -31.37201,30.24513 -6.40391,1.668 -21.53736,1.66355 -29.24375,-0.009 z"
         id="path12" />
      <path
         style="fill:#e7e9ec;stroke-width:0.877464;fill-opacity:1"
         d="m 786.20737,759.44473 v -71.95201 h 18.42673 c 10.13471,0 18.42674,0.11889 18.42674,0.2642 0,0.36907 27.64012,75.91788 28.95628,79.14625 l 1.07318,2.63239 1.52485,-3.50985 c 0.83866,-1.93042 7.36057,-19.89649 14.49313,-39.9246 7.13256,-20.0281 13.15719,-36.90831 13.38806,-37.51156 0.31773,-0.83021 4.98295,-1.09683 19.19137,-1.09683 h 18.77159 v 71.95201 71.95201 h -14.03942 -14.03942 l -0.004,-36.6341 c -0.004,-37.26727 -0.63557,-57.01415 -1.78318,-55.75812 -0.55621,0.60876 -5.71921,14.80292 -22.35615,61.46163 l -4.14558,11.62639 -11.08263,-0.011 -11.08262,-0.011 -5.85385,-16.88016 c -3.21961,-9.28408 -9.14249,-25.9619 -13.16195,-37.06182 l -7.30811,-20.18166 -0.54691,19.3042 c -0.30081,10.61731 -0.59695,31.64353 -0.6581,46.72494 l -0.11119,27.42073 h -14.03941 -14.03942 z"
         id="path13" />
    </g>
  </g>
  <g
     id="g14"
     transform="translate(-186.89974,368.5347)"
     style="fill:#d9662e">
    <path
       style="fill:#d9662e;stroke-width:0.877464"
       d="m 857.06399,161.23861 c -7.59577,-5.2354 -22.90053,-17.17754 -41.03888,-32.0222 l -13.86176,-11.34466 5.60425,-6.28806 c 16.37077,-18.368252 20.23589,-27.436482 20.25802,-47.528842 0.0242,-22.0006 -6.64929,-36.30221 -23.74705,-50.89082 -12.32248,-10.5141303 -22.43719,-14.0052803 -40.64018,-14.0272203 -10.1145,-0.0122 -12.86194,0.29958 -18.79874,2.13316 -9.47537,2.92647 -17.64661,8.5074203 -28.2171,19.2722603 l -8.84617,9.00881 -5.29721,-5.56215 c -21.23912,-22.3014003 -47.64627,-54.07181 -47.64627,-57.32317 0,-2.05954 27.04721,-25.89451 29.38432,-25.89451 1.19497,0 4.38738,2.57333 18.86972,15.21047 3.13338,2.73416 6.38553,4.97119 7.22699,4.97119 2.84723,0 24.50031,-8.25947 25.23065,-9.62412 0.39876,-0.74509 1.38673,-5.89321 2.19549,-11.44027 2.27304,-15.59027 2.99014,-18.30884 5.13321,-19.46029 1.29414,-0.69533 8.14214,-0.99789 21.48415,-0.94922 16.97768,0.0619 19.79949,0.26599 21.19958,1.53305 2.00564,1.81509 2.21787,2.66868 4.38306,17.62885 0.96621,6.67595 2.25491,12.6096 2.86378,13.1859 1.32003,1.24941 23.0599,9.1261 25.18826,9.1261 0.81523,0 4.8122,-2.79837 8.88216,-6.21861 13.56585,-11.4002 15.87939,-13.08558 17.96274,-13.08558 2.35308,0 7.47957,4.08797 23.06675,18.39391 8.97245,8.23494 10.65281,10.17249 10.18809,11.74746 -0.30608,1.03733 -3.90251,7.56799 -7.99207,14.51258 -4.08956,6.9445997 -7.48447,13.2757997 -7.54424,14.0693497 -0.0854,1.13388 9.02205,18.5145703 12.29824,23.4699703 0.37377,0.56534 7.77075,2.25108 16.43774,3.74609 8.66699,1.49501 16.10145,3.0615 16.52104,3.48108 1.2076,1.2076 2.45609,19.61539 2.17771,32.10826 l -0.2542,11.40703 -3.12894,1.53065 c -1.72092,0.84185 -8.56327,2.68267 -15.20522,4.09068 -6.64195,1.40802 -12.2901,2.77386 -12.55145,3.03521 -0.75252,0.75252 -9.91644,26.938442 -9.91644,28.336242 0,0.69209 4.39066,6.07704 9.75702,11.96655 5.36636,5.8895 9.94782,11.19744 10.18102,11.7954 0.80923,2.07502 -21.41648,29.29326 -24.38731,29.86539 -0.71653,0.13799 -4.05587,-1.64667 -7.42076,-3.96592 z"
       id="path5" />
    <path
       style="fill:#d9662e;stroke-width:0.877464"
       d="m 562.45416,280.12894 c 17.30772,-11.93655 39.36157,-13.63258 59.41217,-19.31575 10.22007,-11.88213 30.90189,-32.22765 28.72344,-46.02665 C 613.18649,200.81636 574.05126,185.99 546.22617,156.16411 524.96896,137.47471 509.31653,113.83925 501.10591,86.789363 490.62149,59.979404 494.16114,30.245998 495.19395,2.0390525 502.5001,-22.700532 492.20451,-51.962536 467.8637,-62.785462 c -8.02888,-5.740667 -35.04894,-4.844489 -13.99566,-14.993152 10.59594,-11.191929 30.89257,-7.85424 38.86562,-22.159936 13.77202,-18.95038 34.69342,-32.5164 58.78716,-31.32473 21.8646,-1.43001 40.70849,10.87466 54.70342,26.88575 15.91771,22.221625 23.14302,48.161781 32.91987,73.118024 16.33817,33.6671304 46.23052,57.962997 71.34379,84.986968 47.97811,49.300558 101.02956,93.497138 154.63463,135.982928 28.60715,24.10711 59.07641,45.5812 86.25129,71.24157 1.52353,21.08589 -36.35637,17.20533 -48.55973,6.18805 -20.77481,-9.34066 -39.83736,-22.06125 -60.27799,-32.76347 -25.45113,-13.21334 -49.7316,-29.78796 -76.66228,-40.6228 -33.39486,-5.66181 -66.83042,-13.38754 -97.21718,-29.21407 -41.23783,-18.75504 -76.83518,-51.26133 -96.51194,-92.524887 -4.35828,-8.435974 -10.51824,-29.961164 -8.55012,-7.864938 0.55232,42.562125 31.47832,77.930115 65.38968,100.187175 33.94901,20.66399 72.41447,33.29765 112.1339,36.61977 12.48212,4.85364 -23.31052,14.84657 -30.64979,15.69361 -24.79928,-0.60683 -41.40773,16.10547 -56.66111,33.78096 -25.01975,18.97933 23.51242,15.83566 34.69258,25.06854 23.39348,9.94814 -17.6833,6.49894 -25.55451,7.16447 -34.52058,0.19388 -69.04153,0.31204 -103.5623,0.46725 1.02371,-1.00089 2.04742,-2.00179 3.07113,-3.00268 z M 545.06802,-73.903834 c 17.98609,-30.648186 -41.70391,-19.986971 -14.2985,2.230704 4.60093,1.012753 10.80683,1.781705 14.2985,-2.230704 z"
       id="path6" />
  </g>
</svg>
